<svg width="50" height="50" viewBox="0 0 50 50" fill="none" xmlns="http://www.w3.org/2000/svg">
<path d="M12.5 45.8332H43.75V41.6665H12.525C11.5625 41.6415 10.4167 41.2603 10.4167 39.5832C10.4167 37.9061 11.5625 37.5248 12.525 37.4998H43.75V8.33317C43.75 6.03525 41.8812 4.1665 39.5833 4.1665H12.5C9.9875 4.1665 6.25 5.83109 6.25 10.4165V39.5832C6.25 44.1686 9.9875 45.8332 12.5 45.8332ZM10.4167 16.6665V10.4165C10.4167 8.73942 11.5625 8.35817 12.5 8.33317H39.5833V33.3332H10.4167V16.6665Z" fill="black"/>
<path d="M16.6667 12.5H35.4167V16.6667H16.6667V12.5Z" fill="black"/>
</svg>
