<svg width="33" height="34" viewBox="0 0 33 34" fill="none" xmlns="http://www.w3.org/2000/svg">
<path d="M16.5 3.25C24.0941 3.25 30.25 9.40588 30.25 17C30.25 24.5941 24.0941 30.75 16.5 30.75C14.3055 30.753 12.1424 30.2286 10.1929 29.221L4.93214 30.6881C4.63863 30.77 4.32862 30.7724 4.03388 30.6951C3.73914 30.6178 3.47026 30.4634 3.25479 30.248C3.03932 30.0325 2.885 29.7636 2.80766 29.4689C2.73032 29.1741 2.73273 28.8641 2.81464 28.5706L4.28314 23.314C3.273 21.3628 2.74716 19.1972 2.75001 17C2.75001 9.40588 8.90589 3.25 16.5 3.25ZM16.5 5.3125C13.4003 5.3125 10.4275 6.54386 8.2357 8.73569C6.04387 10.9275 4.81251 13.9003 4.81251 17C4.81251 19.0212 5.32539 20.9641 6.28789 22.6884L6.49414 23.0596L4.96514 28.5376L10.4473 27.0086L10.8185 27.2149C12.3783 28.0821 14.1159 28.5806 15.8982 28.6721C17.6805 28.7637 19.4601 28.4458 21.1005 27.743C22.741 27.0402 24.1986 25.971 25.3618 24.6175C26.525 23.264 27.3627 21.6621 27.8108 19.9346C28.259 18.2072 28.3055 16.4 27.9469 14.6518C27.5884 12.9035 26.8342 11.2606 25.7423 9.84899C24.6503 8.43739 23.2496 7.29459 21.6476 6.50823C20.0455 5.72187 18.2847 5.31284 16.5 5.3125ZM12.0313 18.375H18.216C18.4773 18.3751 18.7288 18.4743 18.9197 18.6527C19.1106 18.8311 19.2267 19.0753 19.2445 19.336C19.2624 19.5966 19.1806 19.8544 19.0157 20.057C18.8508 20.2597 18.6151 20.3923 18.3563 20.4279L18.216 20.4375H12.0313C11.77 20.4374 11.5185 20.3382 11.3275 20.1598C11.1366 19.9814 11.0205 19.7372 11.0027 19.4765C10.9849 19.2159 11.0667 18.9581 11.2316 18.7555C11.3965 18.5528 11.6322 18.4202 11.891 18.3846L12.0313 18.375ZM12.0313 13.5625H20.9756C21.2368 13.5629 21.4881 13.6624 21.6787 13.8409C21.8694 14.0194 21.9852 14.2636 22.0029 14.5241C22.0205 14.7847 21.9386 15.0423 21.7737 15.2448C21.6088 15.4473 21.3732 15.5798 21.1145 15.6154L20.9756 15.625H12.0313C11.77 15.6249 11.5185 15.5257 11.3275 15.3473C11.1366 15.1689 11.0205 14.9247 11.0027 14.664C10.9849 14.4034 11.0667 14.1456 11.2316 13.943C11.3965 13.7403 11.6322 13.6077 11.891 13.5721L12.0313 13.5625Z" fill="#61646B"/>
</svg>
