<svg width="33" height="34" viewBox="0 0 33 34" fill="none" xmlns="http://www.w3.org/2000/svg">
<path d="M16.5 6C17.9587 6 19.3576 6.57946 20.3891 7.61091C21.4205 8.64236 22 10.0413 22 11.5C22 12.9587 21.4205 14.3576 20.3891 15.3891C19.3576 16.4205 17.9587 17 16.5 17C15.0413 17 13.6424 16.4205 12.6109 15.3891C11.5795 14.3576 11 12.9587 11 11.5C11 10.0413 11.5795 8.64236 12.6109 7.61091C13.6424 6.57946 15.0413 6 16.5 6ZM16.5 8.75C15.7707 8.75 15.0712 9.03973 14.5555 9.55546C14.0397 10.0712 13.75 10.7707 13.75 11.5C13.75 12.2293 14.0397 12.9288 14.5555 13.4445C15.0712 13.9603 15.7707 14.25 16.5 14.25C17.2293 14.25 17.9288 13.9603 18.4445 13.4445C18.9603 12.9288 19.25 12.2293 19.25 11.5C19.25 10.7707 18.9603 10.0712 18.4445 9.55546C17.9288 9.03973 17.2293 8.75 16.5 8.75ZM16.5 18.375C20.1713 18.375 27.5 20.2037 27.5 23.875V28H5.5V23.875C5.5 20.2037 12.8287 18.375 16.5 18.375ZM16.5 20.9875C12.4162 20.9875 8.1125 22.995 8.1125 23.875V25.3875H24.8875V23.875C24.8875 22.995 20.5837 20.9875 16.5 20.9875Z" fill="#61646B"/>
</svg>
