<svg width="33" height="34" viewBox="0 0 33 34" fill="none" xmlns="http://www.w3.org/2000/svg">
<path d="M11.5156 22.8438L18.4594 20.85C18.9177 20.7125 19.3133 20.4774 19.646 20.1446C19.9788 19.8119 20.2134 19.4168 20.35 18.9594L22.3438 12.0156C22.4125 11.7635 22.3497 11.5399 22.1554 11.3446C21.961 11.1494 21.7374 11.0866 21.4844 11.1562L14.5406 13.15C14.0823 13.2875 13.6872 13.5226 13.3554 13.8554C13.0235 14.1881 12.7884 14.5832 12.65 15.0406L10.6563 21.9844C10.5875 22.2365 10.6508 22.4601 10.846 22.6554C11.0413 22.8506 11.2645 22.9134 11.5156 22.8438ZM16.5 19.0625C15.9271 19.0625 15.4403 18.8622 15.0398 18.4616C14.6392 18.061 14.4384 17.5738 14.4375 17C14.4366 16.4262 14.6373 15.9394 15.0398 15.5397C15.4422 15.1401 15.9289 14.9393 16.5 14.9375C17.0711 14.9357 17.5583 15.1364 17.9616 15.5397C18.365 15.9431 18.5653 16.4298 18.5625 17C18.5598 17.5702 18.3595 18.0574 17.9616 18.4616C17.5638 18.8659 17.0766 19.0662 16.5 19.0625ZM16.5 30.75C14.5979 30.75 12.8104 30.3888 11.1375 29.6665C9.46459 28.9442 8.00938 27.9647 6.77188 26.7281C5.53438 25.4915 4.55492 24.0363 3.8335 22.3625C3.11209 20.6887 2.75092 18.9012 2.75 17C2.74909 15.0988 3.11025 13.3113 3.8335 11.6375C4.55675 9.96367 5.53621 8.50846 6.77188 7.27188C8.00754 6.03529 9.46275 5.05583 11.1375 4.3335C12.8123 3.61117 14.5998 3.25 16.5 3.25C18.4003 3.25 20.1877 3.61117 21.8625 4.3335C23.5373 5.05583 24.9925 6.03529 26.2281 7.27188C27.4638 8.50846 28.4437 9.96367 29.1679 11.6375C29.892 13.3113 30.2528 15.0988 30.25 17C30.2473 18.9012 29.8861 20.6887 29.1665 22.3625C28.4469 24.0363 27.4675 25.4915 26.2281 26.7281C24.9888 27.9647 23.5336 28.9446 21.8625 29.6679C20.1914 30.3911 18.4039 30.7518 16.5 30.75ZM16.5 28C19.5479 28 22.1435 26.9289 24.2866 24.7866C26.4298 22.6444 27.5009 20.0488 27.5 17C27.4991 13.9512 26.428 11.3556 24.2866 9.21338C22.1453 7.07112 19.5498 6 16.5 6C13.4503 6 10.8547 7.07158 8.71338 9.21475C6.57204 11.3579 5.50092 13.953 5.5 17C5.49908 20.047 6.57067 22.6425 8.71475 24.7866C10.8588 26.9307 13.4539 28.0018 16.5 28Z" fill="#61646B"/>
</svg>
