<svg width="34" height="34" viewBox="0 0 34 34" fill="none" xmlns="http://www.w3.org/2000/svg">
<path d="M8.5 26.625H12.75V19.75C12.75 19.3604 12.886 19.0341 13.158 18.771C13.43 18.5079 13.7662 18.3759 14.1667 18.375H19.8333C20.2347 18.375 20.5714 18.507 20.8434 18.771C21.1154 19.035 21.2509 19.3613 21.25 19.75V26.625H25.5V14.25L17 8.0625L8.5 14.25V26.625ZM5.66667 26.625V14.25C5.66667 13.8146 5.76725 13.4021 5.96842 13.0125C6.16958 12.6229 6.44678 12.3021 6.8 12.05L15.3 5.8625C15.7958 5.49583 16.3625 5.3125 17 5.3125C17.6375 5.3125 18.2042 5.49583 18.7 5.8625L27.2 12.05C27.5542 12.3021 27.8318 12.6229 28.033 13.0125C28.2342 13.4021 28.3343 13.8146 28.3333 14.25V26.625C28.3333 27.3812 28.0557 28.0289 27.5003 28.5679C26.945 29.1069 26.2782 29.3759 25.5 29.375H19.8333C19.4319 29.375 19.0957 29.243 18.8247 28.979C18.5536 28.715 18.4176 28.3887 18.4167 28V21.125H15.5833V28C15.5833 28.3896 15.4473 28.7164 15.1753 28.9804C14.9033 29.2444 14.5671 29.3759 14.1667 29.375H8.5C7.72083 29.375 7.05406 29.106 6.49967 28.5679C5.94528 28.0298 5.66761 27.3822 5.66667 26.625Z" fill="#61646B"/>
</svg>
